<?xml version="1.0" encoding="utf-8" standalone="no"?>
<!DOCTYPE svg PUBLIC "-//W3C//DTD SVG 1.1//EN"
  "http://www.w3.org/Graphics/SVG/1.1/DTD/svg11.dtd">
<!-- Created with matplotlib (https://matplotlib.org/) -->
<svg height="345.6pt" version="1.1" viewBox="0 0 460.8 345.6" width="460.8pt" xmlns="http://www.w3.org/2000/svg" xmlns:xlink="http://www.w3.org/1999/xlink">
 <defs>
  <style type="text/css">
*{stroke-linecap:butt;stroke-linejoin:round;}
  </style>
 </defs>
 <g id="figure_1">
  <g id="patch_1">
   <path d="M 0 345.6 
L 460.8 345.6 
L 460.8 0 
L 0 0 
z
" style="fill:#ffffff;"/>
  </g>
  <g id="axes_1">
   <g id="patch_2">
    <path d="M 57.6 307.584 
L 414.72 307.584 
L 414.72 41.472 
L 57.6 41.472 
z
" style="fill:#ffffff;"/>
   </g>
   <g id="matplotlib.axis_1">
    <g id="xtick_1">
     <g id="line2d_1">
      <defs>
       <path d="M 0 0 
L 0 3.5 
" id="m51045daa2f" style="stroke:#000000;stroke-width:0.8;"/>
      </defs>
      <g>
       <use style="stroke:#000000;stroke-width:0.8;" x="63.492265" xlink:href="#m51045daa2f" y="307.584"/>
      </g>
     </g>
     <g id="text_1">
      <!-- −50 -->
      <defs>
       <path d="M 10.59375 35.5 
L 73.1875 35.5 
L 73.1875 27.203125 
L 10.59375 27.203125 
z
" id="DejaVuSans-8722"/>
       <path d="M 10.796875 72.90625 
L 49.515625 72.90625 
L 49.515625 64.59375 
L 19.828125 64.59375 
L 19.828125 46.734375 
Q 21.96875 47.46875 24.109375 47.828125 
Q 26.265625 48.1875 28.421875 48.1875 
Q 40.625 48.1875 47.75 41.5 
Q 54.890625 34.8125 54.890625 23.390625 
Q 54.890625 11.625 47.5625 5.09375 
Q 40.234375 -1.421875 26.90625 -1.421875 
Q 22.3125 -1.421875 17.546875 -0.640625 
Q 12.796875 0.140625 7.71875 1.703125 
L 7.71875 11.625 
Q 12.109375 9.234375 16.796875 8.0625 
Q 21.484375 6.890625 26.703125 6.890625 
Q 35.15625 6.890625 40.078125 11.328125 
Q 45.015625 15.765625 45.015625 23.390625 
Q 45.015625 31 40.078125 35.4375 
Q 35.15625 39.890625 26.703125 39.890625 
Q 22.75 39.890625 18.8125 39.015625 
Q 14.890625 38.140625 10.796875 36.28125 
z
" id="DejaVuSans-53"/>
       <path d="M 31.78125 66.40625 
Q 24.171875 66.40625 20.328125 58.90625 
Q 16.5 51.421875 16.5 36.375 
Q 16.5 21.390625 20.328125 13.890625 
Q 24.171875 6.390625 31.78125 6.390625 
Q 39.453125 6.390625 43.28125 13.890625 
Q 47.125 21.390625 47.125 36.375 
Q 47.125 51.421875 43.28125 58.90625 
Q 39.453125 66.40625 31.78125 66.40625 
z
M 31.78125 74.21875 
Q 44.046875 74.21875 50.515625 64.515625 
Q 56.984375 54.828125 56.984375 36.375 
Q 56.984375 17.96875 50.515625 8.265625 
Q 44.046875 -1.421875 31.78125 -1.421875 
Q 19.53125 -1.421875 13.0625 8.265625 
Q 6.59375 17.96875 6.59375 36.375 
Q 6.59375 54.828125 13.0625 64.515625 
Q 19.53125 74.21875 31.78125 74.21875 
z
" id="DejaVuSans-48"/>
      </defs>
      <g transform="translate(52.939921 322.182437)scale(0.1 -0.1)">
       <use xlink:href="#DejaVuSans-8722"/>
       <use x="83.789062" xlink:href="#DejaVuSans-53"/>
       <use x="147.412109" xlink:href="#DejaVuSans-48"/>
      </g>
     </g>
    </g>
    <g id="xtick_2">
     <g id="line2d_2">
      <g>
       <use style="stroke:#000000;stroke-width:0.8;" x="104.34801" xlink:href="#m51045daa2f" y="307.584"/>
      </g>
     </g>
     <g id="text_2">
      <!-- −25 -->
      <defs>
       <path d="M 19.1875 8.296875 
L 53.609375 8.296875 
L 53.609375 0 
L 7.328125 0 
L 7.328125 8.296875 
Q 12.9375 14.109375 22.625 23.890625 
Q 32.328125 33.6875 34.8125 36.53125 
Q 39.546875 41.84375 41.421875 45.53125 
Q 43.3125 49.21875 43.3125 52.78125 
Q 43.3125 58.59375 39.234375 62.25 
Q 35.15625 65.921875 28.609375 65.921875 
Q 23.96875 65.921875 18.8125 64.3125 
Q 13.671875 62.703125 7.8125 59.421875 
L 7.8125 69.390625 
Q 13.765625 71.78125 18.9375 73 
Q 24.125 74.21875 28.421875 74.21875 
Q 39.75 74.21875 46.484375 68.546875 
Q 53.21875 62.890625 53.21875 53.421875 
Q 53.21875 48.921875 51.53125 44.890625 
Q 49.859375 40.875 45.40625 35.40625 
Q 44.1875 33.984375 37.640625 27.21875 
Q 31.109375 20.453125 19.1875 8.296875 
z
" id="DejaVuSans-50"/>
      </defs>
      <g transform="translate(93.795666 322.182437)scale(0.1 -0.1)">
       <use xlink:href="#DejaVuSans-8722"/>
       <use x="83.789062" xlink:href="#DejaVuSans-50"/>
       <use x="147.412109" xlink:href="#DejaVuSans-53"/>
      </g>
     </g>
    </g>
    <g id="xtick_3">
     <g id="line2d_3">
      <g>
       <use style="stroke:#000000;stroke-width:0.8;" x="145.203755" xlink:href="#m51045daa2f" y="307.584"/>
      </g>
     </g>
     <g id="text_3">
      <!-- 0 -->
      <g transform="translate(142.022505 322.182437)scale(0.1 -0.1)">
       <use xlink:href="#DejaVuSans-48"/>
      </g>
     </g>
    </g>
    <g id="xtick_4">
     <g id="line2d_4">
      <g>
       <use style="stroke:#000000;stroke-width:0.8;" x="186.059501" xlink:href="#m51045daa2f" y="307.584"/>
      </g>
     </g>
     <g id="text_4">
      <!-- 25 -->
      <g transform="translate(179.697001 322.182437)scale(0.1 -0.1)">
       <use xlink:href="#DejaVuSans-50"/>
       <use x="63.623047" xlink:href="#DejaVuSans-53"/>
      </g>
     </g>
    </g>
    <g id="xtick_5">
     <g id="line2d_5">
      <g>
       <use style="stroke:#000000;stroke-width:0.8;" x="226.915246" xlink:href="#m51045daa2f" y="307.584"/>
      </g>
     </g>
     <g id="text_5">
      <!-- 50 -->
      <g transform="translate(220.552746 322.182437)scale(0.1 -0.1)">
       <use xlink:href="#DejaVuSans-53"/>
       <use x="63.623047" xlink:href="#DejaVuSans-48"/>
      </g>
     </g>
    </g>
    <g id="xtick_6">
     <g id="line2d_6">
      <g>
       <use style="stroke:#000000;stroke-width:0.8;" x="267.770991" xlink:href="#m51045daa2f" y="307.584"/>
      </g>
     </g>
     <g id="text_6">
      <!-- 75 -->
      <defs>
       <path d="M 8.203125 72.90625 
L 55.078125 72.90625 
L 55.078125 68.703125 
L 28.609375 0 
L 18.3125 0 
L 43.21875 64.59375 
L 8.203125 64.59375 
z
" id="DejaVuSans-55"/>
      </defs>
      <g transform="translate(261.408491 322.182437)scale(0.1 -0.1)">
       <use xlink:href="#DejaVuSans-55"/>
       <use x="63.623047" xlink:href="#DejaVuSans-53"/>
      </g>
     </g>
    </g>
    <g id="xtick_7">
     <g id="line2d_7">
      <g>
       <use style="stroke:#000000;stroke-width:0.8;" x="308.626736" xlink:href="#m51045daa2f" y="307.584"/>
      </g>
     </g>
     <g id="text_7">
      <!-- 100 -->
      <defs>
       <path d="M 12.40625 8.296875 
L 28.515625 8.296875 
L 28.515625 63.921875 
L 10.984375 60.40625 
L 10.984375 69.390625 
L 28.421875 72.90625 
L 38.28125 72.90625 
L 38.28125 8.296875 
L 54.390625 8.296875 
L 54.390625 0 
L 12.40625 0 
z
" id="DejaVuSans-49"/>
      </defs>
      <g transform="translate(299.082986 322.182437)scale(0.1 -0.1)">
       <use xlink:href="#DejaVuSans-49"/>
       <use x="63.623047" xlink:href="#DejaVuSans-48"/>
       <use x="127.246094" xlink:href="#DejaVuSans-48"/>
      </g>
     </g>
    </g>
    <g id="xtick_8">
     <g id="line2d_8">
      <g>
       <use style="stroke:#000000;stroke-width:0.8;" x="349.482482" xlink:href="#m51045daa2f" y="307.584"/>
      </g>
     </g>
     <g id="text_8">
      <!-- 125 -->
      <g transform="translate(339.938732 322.182437)scale(0.1 -0.1)">
       <use xlink:href="#DejaVuSans-49"/>
       <use x="63.623047" xlink:href="#DejaVuSans-50"/>
       <use x="127.246094" xlink:href="#DejaVuSans-53"/>
      </g>
     </g>
    </g>
    <g id="xtick_9">
     <g id="line2d_9">
      <g>
       <use style="stroke:#000000;stroke-width:0.8;" x="390.338227" xlink:href="#m51045daa2f" y="307.584"/>
      </g>
     </g>
     <g id="text_9">
      <!-- 150 -->
      <g transform="translate(380.794477 322.182437)scale(0.1 -0.1)">
       <use xlink:href="#DejaVuSans-49"/>
       <use x="63.623047" xlink:href="#DejaVuSans-53"/>
       <use x="127.246094" xlink:href="#DejaVuSans-48"/>
      </g>
     </g>
    </g>
    <g id="text_10">
     <!-- Time (s) -->
     <defs>
      <path d="M -0.296875 72.90625 
L 61.375 72.90625 
L 61.375 64.59375 
L 35.5 64.59375 
L 35.5 0 
L 25.59375 0 
L 25.59375 64.59375 
L -0.296875 64.59375 
z
" id="DejaVuSans-84"/>
      <path d="M 9.421875 54.6875 
L 18.40625 54.6875 
L 18.40625 0 
L 9.421875 0 
z
M 9.421875 75.984375 
L 18.40625 75.984375 
L 18.40625 64.59375 
L 9.421875 64.59375 
z
" id="DejaVuSans-105"/>
      <path d="M 52 44.1875 
Q 55.375 50.25 60.0625 53.125 
Q 64.75 56 71.09375 56 
Q 79.640625 56 84.28125 50.015625 
Q 88.921875 44.046875 88.921875 33.015625 
L 88.921875 0 
L 79.890625 0 
L 79.890625 32.71875 
Q 79.890625 40.578125 77.09375 44.375 
Q 74.3125 48.1875 68.609375 48.1875 
Q 61.625 48.1875 57.5625 43.546875 
Q 53.515625 38.921875 53.515625 30.90625 
L 53.515625 0 
L 44.484375 0 
L 44.484375 32.71875 
Q 44.484375 40.625 41.703125 44.40625 
Q 38.921875 48.1875 33.109375 48.1875 
Q 26.21875 48.1875 22.15625 43.53125 
Q 18.109375 38.875 18.109375 30.90625 
L 18.109375 0 
L 9.078125 0 
L 9.078125 54.6875 
L 18.109375 54.6875 
L 18.109375 46.1875 
Q 21.1875 51.21875 25.484375 53.609375 
Q 29.78125 56 35.6875 56 
Q 41.65625 56 45.828125 52.96875 
Q 50 49.953125 52 44.1875 
z
" id="DejaVuSans-109"/>
      <path d="M 56.203125 29.59375 
L 56.203125 25.203125 
L 14.890625 25.203125 
Q 15.484375 15.921875 20.484375 11.0625 
Q 25.484375 6.203125 34.421875 6.203125 
Q 39.59375 6.203125 44.453125 7.46875 
Q 49.3125 8.734375 54.109375 11.28125 
L 54.109375 2.78125 
Q 49.265625 0.734375 44.1875 -0.34375 
Q 39.109375 -1.421875 33.890625 -1.421875 
Q 20.796875 -1.421875 13.15625 6.1875 
Q 5.515625 13.8125 5.515625 26.8125 
Q 5.515625 40.234375 12.765625 48.109375 
Q 20.015625 56 32.328125 56 
Q 43.359375 56 49.78125 48.890625 
Q 56.203125 41.796875 56.203125 29.59375 
z
M 47.21875 32.234375 
Q 47.125 39.59375 43.09375 43.984375 
Q 39.0625 48.390625 32.421875 48.390625 
Q 24.90625 48.390625 20.390625 44.140625 
Q 15.875 39.890625 15.1875 32.171875 
z
" id="DejaVuSans-101"/>
      <path id="DejaVuSans-32"/>
      <path d="M 31 75.875 
Q 24.46875 64.65625 21.28125 53.65625 
Q 18.109375 42.671875 18.109375 31.390625 
Q 18.109375 20.125 21.3125 9.0625 
Q 24.515625 -2 31 -13.1875 
L 23.1875 -13.1875 
Q 15.875 -1.703125 12.234375 9.375 
Q 8.59375 20.453125 8.59375 31.390625 
Q 8.59375 42.28125 12.203125 53.3125 
Q 15.828125 64.359375 23.1875 75.875 
z
" id="DejaVuSans-40"/>
      <path d="M 44.28125 53.078125 
L 44.28125 44.578125 
Q 40.484375 46.53125 36.375 47.5 
Q 32.28125 48.484375 27.875 48.484375 
Q 21.1875 48.484375 17.84375 46.4375 
Q 14.5 44.390625 14.5 40.28125 
Q 14.5 37.15625 16.890625 35.375 
Q 19.28125 33.59375 26.515625 31.984375 
L 29.59375 31.296875 
Q 39.15625 29.25 43.1875 25.515625 
Q 47.21875 21.78125 47.21875 15.09375 
Q 47.21875 7.46875 41.1875 3.015625 
Q 35.15625 -1.421875 24.609375 -1.421875 
Q 20.21875 -1.421875 15.453125 -0.5625 
Q 10.6875 0.296875 5.421875 2 
L 5.421875 11.28125 
Q 10.40625 8.6875 15.234375 7.390625 
Q 20.0625 6.109375 24.8125 6.109375 
Q 31.15625 6.109375 34.5625 8.28125 
Q 37.984375 10.453125 37.984375 14.40625 
Q 37.984375 18.0625 35.515625 20.015625 
Q 33.0625 21.96875 24.703125 23.78125 
L 21.578125 24.515625 
Q 13.234375 26.265625 9.515625 29.90625 
Q 5.8125 33.546875 5.8125 39.890625 
Q 5.8125 47.609375 11.28125 51.796875 
Q 16.75 56 26.8125 56 
Q 31.78125 56 36.171875 55.265625 
Q 40.578125 54.546875 44.28125 53.078125 
z
" id="DejaVuSans-115"/>
      <path d="M 8.015625 75.875 
L 15.828125 75.875 
Q 23.140625 64.359375 26.78125 53.3125 
Q 30.421875 42.28125 30.421875 31.390625 
Q 30.421875 20.453125 26.78125 9.375 
Q 23.140625 -1.703125 15.828125 -13.1875 
L 8.015625 -13.1875 
Q 14.5 -2 17.703125 9.0625 
Q 20.90625 20.125 20.90625 31.390625 
Q 20.90625 42.671875 17.703125 53.65625 
Q 14.5 64.65625 8.015625 75.875 
z
" id="DejaVuSans-41"/>
     </defs>
     <g transform="translate(215.677188 335.860562)scale(0.1 -0.1)">
      <use xlink:href="#DejaVuSans-84"/>
      <use x="61.037109" xlink:href="#DejaVuSans-105"/>
      <use x="88.820312" xlink:href="#DejaVuSans-109"/>
      <use x="186.232422" xlink:href="#DejaVuSans-101"/>
      <use x="247.755859" xlink:href="#DejaVuSans-32"/>
      <use x="279.542969" xlink:href="#DejaVuSans-40"/>
      <use x="318.556641" xlink:href="#DejaVuSans-115"/>
      <use x="370.65625" xlink:href="#DejaVuSans-41"/>
     </g>
    </g>
   </g>
   <g id="matplotlib.axis_2">
    <g id="ytick_1">
     <g id="line2d_10">
      <defs>
       <path d="M 0 0 
L -3.5 0 
" id="ma06156e2b8" style="stroke:#000000;stroke-width:0.8;"/>
      </defs>
      <g>
       <use style="stroke:#000000;stroke-width:0.8;" x="57.6" xlink:href="#ma06156e2b8" y="298.888509"/>
      </g>
     </g>
     <g id="text_11">
      <!-- −8 -->
      <defs>
       <path d="M 31.78125 34.625 
Q 24.75 34.625 20.71875 30.859375 
Q 16.703125 27.09375 16.703125 20.515625 
Q 16.703125 13.921875 20.71875 10.15625 
Q 24.75 6.390625 31.78125 6.390625 
Q 38.8125 6.390625 42.859375 10.171875 
Q 46.921875 13.96875 46.921875 20.515625 
Q 46.921875 27.09375 42.890625 30.859375 
Q 38.875 34.625 31.78125 34.625 
z
M 21.921875 38.8125 
Q 15.578125 40.375 12.03125 44.71875 
Q 8.5 49.078125 8.5 55.328125 
Q 8.5 64.0625 14.71875 69.140625 
Q 20.953125 74.21875 31.78125 74.21875 
Q 42.671875 74.21875 48.875 69.140625 
Q 55.078125 64.0625 55.078125 55.328125 
Q 55.078125 49.078125 51.53125 44.71875 
Q 48 40.375 41.703125 38.8125 
Q 48.828125 37.15625 52.796875 32.3125 
Q 56.78125 27.484375 56.78125 20.515625 
Q 56.78125 9.90625 50.3125 4.234375 
Q 43.84375 -1.421875 31.78125 -1.421875 
Q 19.734375 -1.421875 13.25 4.234375 
Q 6.78125 9.90625 6.78125 20.515625 
Q 6.78125 27.484375 10.78125 32.3125 
Q 14.796875 37.15625 21.921875 38.8125 
z
M 18.3125 54.390625 
Q 18.3125 48.734375 21.84375 45.5625 
Q 25.390625 42.390625 31.78125 42.390625 
Q 38.140625 42.390625 41.71875 45.5625 
Q 45.3125 48.734375 45.3125 54.390625 
Q 45.3125 60.0625 41.71875 63.234375 
Q 38.140625 66.40625 31.78125 66.40625 
Q 25.390625 66.40625 21.84375 63.234375 
Q 18.3125 60.0625 18.3125 54.390625 
z
" id="DejaVuSans-56"/>
      </defs>
      <g transform="translate(35.857813 302.687728)scale(0.1 -0.1)">
       <use xlink:href="#DejaVuSans-8722"/>
       <use x="83.789062" xlink:href="#DejaVuSans-56"/>
      </g>
     </g>
    </g>
    <g id="ytick_2">
     <g id="line2d_11">
      <g>
       <use style="stroke:#000000;stroke-width:0.8;" x="57.6" xlink:href="#ma06156e2b8" y="264.736728"/>
      </g>
     </g>
     <g id="text_12">
      <!-- −4 -->
      <defs>
       <path d="M 37.796875 64.3125 
L 12.890625 25.390625 
L 37.796875 25.390625 
z
M 35.203125 72.90625 
L 47.609375 72.90625 
L 47.609375 25.390625 
L 58.015625 25.390625 
L 58.015625 17.1875 
L 47.609375 17.1875 
L 47.609375 0 
L 37.796875 0 
L 37.796875 17.1875 
L 4.890625 17.1875 
L 4.890625 26.703125 
z
" id="DejaVuSans-52"/>
      </defs>
      <g transform="translate(35.857813 268.535947)scale(0.1 -0.1)">
       <use xlink:href="#DejaVuSans-8722"/>
       <use x="83.789062" xlink:href="#DejaVuSans-52"/>
      </g>
     </g>
    </g>
    <g id="ytick_3">
     <g id="line2d_12">
      <g>
       <use style="stroke:#000000;stroke-width:0.8;" x="57.6" xlink:href="#ma06156e2b8" y="230.584947"/>
      </g>
     </g>
     <g id="text_13">
      <!-- 0 -->
      <g transform="translate(44.2375 234.384166)scale(0.1 -0.1)">
       <use xlink:href="#DejaVuSans-48"/>
      </g>
     </g>
    </g>
    <g id="ytick_4">
     <g id="line2d_13">
      <g>
       <use style="stroke:#000000;stroke-width:0.8;" x="57.6" xlink:href="#ma06156e2b8" y="196.433166"/>
      </g>
     </g>
     <g id="text_14">
      <!-- 4 -->
      <g transform="translate(44.2375 200.232385)scale(0.1 -0.1)">
       <use xlink:href="#DejaVuSans-52"/>
      </g>
     </g>
    </g>
    <g id="ytick_5">
     <g id="line2d_14">
      <g>
       <use style="stroke:#000000;stroke-width:0.8;" x="57.6" xlink:href="#ma06156e2b8" y="162.281385"/>
      </g>
     </g>
     <g id="text_15">
      <!-- 8 -->
      <g transform="translate(44.2375 166.080603)scale(0.1 -0.1)">
       <use xlink:href="#DejaVuSans-56"/>
      </g>
     </g>
    </g>
    <g id="ytick_6">
     <g id="line2d_15">
      <g>
       <use style="stroke:#000000;stroke-width:0.8;" x="57.6" xlink:href="#ma06156e2b8" y="128.129604"/>
      </g>
     </g>
     <g id="text_16">
      <!-- 12 -->
      <g transform="translate(37.875 131.928822)scale(0.1 -0.1)">
       <use xlink:href="#DejaVuSans-49"/>
       <use x="63.623047" xlink:href="#DejaVuSans-50"/>
      </g>
     </g>
    </g>
    <g id="ytick_7">
     <g id="line2d_16">
      <g>
       <use style="stroke:#000000;stroke-width:0.8;" x="57.6" xlink:href="#ma06156e2b8" y="93.977822"/>
      </g>
     </g>
     <g id="text_17">
      <!-- 16 -->
      <defs>
       <path d="M 33.015625 40.375 
Q 26.375 40.375 22.484375 35.828125 
Q 18.609375 31.296875 18.609375 23.390625 
Q 18.609375 15.53125 22.484375 10.953125 
Q 26.375 6.390625 33.015625 6.390625 
Q 39.65625 6.390625 43.53125 10.953125 
Q 47.40625 15.53125 47.40625 23.390625 
Q 47.40625 31.296875 43.53125 35.828125 
Q 39.65625 40.375 33.015625 40.375 
z
M 52.59375 71.296875 
L 52.59375 62.3125 
Q 48.875 64.0625 45.09375 64.984375 
Q 41.3125 65.921875 37.59375 65.921875 
Q 27.828125 65.921875 22.671875 59.328125 
Q 17.53125 52.734375 16.796875 39.40625 
Q 19.671875 43.65625 24.015625 45.921875 
Q 28.375 48.1875 33.59375 48.1875 
Q 44.578125 48.1875 50.953125 41.515625 
Q 57.328125 34.859375 57.328125 23.390625 
Q 57.328125 12.15625 50.6875 5.359375 
Q 44.046875 -1.421875 33.015625 -1.421875 
Q 20.359375 -1.421875 13.671875 8.265625 
Q 6.984375 17.96875 6.984375 36.375 
Q 6.984375 53.65625 15.1875 63.9375 
Q 23.390625 74.21875 37.203125 74.21875 
Q 40.921875 74.21875 44.703125 73.484375 
Q 48.484375 72.75 52.59375 71.296875 
z
" id="DejaVuSans-54"/>
      </defs>
      <g transform="translate(37.875 97.777041)scale(0.1 -0.1)">
       <use xlink:href="#DejaVuSans-49"/>
       <use x="63.623047" xlink:href="#DejaVuSans-54"/>
      </g>
     </g>
    </g>
    <g id="ytick_8">
     <g id="line2d_17">
      <g>
       <use style="stroke:#000000;stroke-width:0.8;" x="57.6" xlink:href="#ma06156e2b8" y="59.826041"/>
      </g>
     </g>
     <g id="text_18">
      <!-- 20 -->
      <g transform="translate(37.875 63.62526)scale(0.1 -0.1)">
       <use xlink:href="#DejaVuSans-50"/>
       <use x="63.623047" xlink:href="#DejaVuSans-48"/>
      </g>
     </g>
    </g>
    <g id="text_19">
     <!-- Temperature (°C) -->
     <defs>
      <path d="M 18.109375 8.203125 
L 18.109375 -20.796875 
L 9.078125 -20.796875 
L 9.078125 54.6875 
L 18.109375 54.6875 
L 18.109375 46.390625 
Q 20.953125 51.265625 25.265625 53.625 
Q 29.59375 56 35.59375 56 
Q 45.5625 56 51.78125 48.09375 
Q 58.015625 40.1875 58.015625 27.296875 
Q 58.015625 14.40625 51.78125 6.484375 
Q 45.5625 -1.421875 35.59375 -1.421875 
Q 29.59375 -1.421875 25.265625 0.953125 
Q 20.953125 3.328125 18.109375 8.203125 
z
M 48.6875 27.296875 
Q 48.6875 37.203125 44.609375 42.84375 
Q 40.53125 48.484375 33.40625 48.484375 
Q 26.265625 48.484375 22.1875 42.84375 
Q 18.109375 37.203125 18.109375 27.296875 
Q 18.109375 17.390625 22.1875 11.75 
Q 26.265625 6.109375 33.40625 6.109375 
Q 40.53125 6.109375 44.609375 11.75 
Q 48.6875 17.390625 48.6875 27.296875 
z
" id="DejaVuSans-112"/>
      <path d="M 41.109375 46.296875 
Q 39.59375 47.171875 37.8125 47.578125 
Q 36.03125 48 33.890625 48 
Q 26.265625 48 22.1875 43.046875 
Q 18.109375 38.09375 18.109375 28.8125 
L 18.109375 0 
L 9.078125 0 
L 9.078125 54.6875 
L 18.109375 54.6875 
L 18.109375 46.1875 
Q 20.953125 51.171875 25.484375 53.578125 
Q 30.03125 56 36.53125 56 
Q 37.453125 56 38.578125 55.875 
Q 39.703125 55.765625 41.0625 55.515625 
z
" id="DejaVuSans-114"/>
      <path d="M 34.28125 27.484375 
Q 23.390625 27.484375 19.1875 25 
Q 14.984375 22.515625 14.984375 16.5 
Q 14.984375 11.71875 18.140625 8.90625 
Q 21.296875 6.109375 26.703125 6.109375 
Q 34.1875 6.109375 38.703125 11.40625 
Q 43.21875 16.703125 43.21875 25.484375 
L 43.21875 27.484375 
z
M 52.203125 31.203125 
L 52.203125 0 
L 43.21875 0 
L 43.21875 8.296875 
Q 40.140625 3.328125 35.546875 0.953125 
Q 30.953125 -1.421875 24.3125 -1.421875 
Q 15.921875 -1.421875 10.953125 3.296875 
Q 6 8.015625 6 15.921875 
Q 6 25.140625 12.171875 29.828125 
Q 18.359375 34.515625 30.609375 34.515625 
L 43.21875 34.515625 
L 43.21875 35.40625 
Q 43.21875 41.609375 39.140625 45 
Q 35.0625 48.390625 27.6875 48.390625 
Q 23 48.390625 18.546875 47.265625 
Q 14.109375 46.140625 10.015625 43.890625 
L 10.015625 52.203125 
Q 14.9375 54.109375 19.578125 55.046875 
Q 24.21875 56 28.609375 56 
Q 40.484375 56 46.34375 49.84375 
Q 52.203125 43.703125 52.203125 31.203125 
z
" id="DejaVuSans-97"/>
      <path d="M 18.3125 70.21875 
L 18.3125 54.6875 
L 36.8125 54.6875 
L 36.8125 47.703125 
L 18.3125 47.703125 
L 18.3125 18.015625 
Q 18.3125 11.328125 20.140625 9.421875 
Q 21.96875 7.515625 27.59375 7.515625 
L 36.8125 7.515625 
L 36.8125 0 
L 27.59375 0 
Q 17.1875 0 13.234375 3.875 
Q 9.28125 7.765625 9.28125 18.015625 
L 9.28125 47.703125 
L 2.6875 47.703125 
L 2.6875 54.6875 
L 9.28125 54.6875 
L 9.28125 70.21875 
z
" id="DejaVuSans-116"/>
      <path d="M 8.5 21.578125 
L 8.5 54.6875 
L 17.484375 54.6875 
L 17.484375 21.921875 
Q 17.484375 14.15625 20.5 10.265625 
Q 23.53125 6.390625 29.59375 6.390625 
Q 36.859375 6.390625 41.078125 11.03125 
Q 45.3125 15.671875 45.3125 23.6875 
L 45.3125 54.6875 
L 54.296875 54.6875 
L 54.296875 0 
L 45.3125 0 
L 45.3125 8.40625 
Q 42.046875 3.421875 37.71875 1 
Q 33.40625 -1.421875 27.6875 -1.421875 
Q 18.265625 -1.421875 13.375 4.4375 
Q 8.5 10.296875 8.5 21.578125 
z
M 31.109375 56 
z
" id="DejaVuSans-117"/>
      <path d="M 25 67.921875 
Q 21.09375 67.921875 18.40625 65.203125 
Q 15.71875 62.5 15.71875 58.59375 
Q 15.71875 54.734375 18.40625 52.078125 
Q 21.09375 49.421875 25 49.421875 
Q 28.90625 49.421875 31.59375 52.078125 
Q 34.28125 54.734375 34.28125 58.59375 
Q 34.28125 62.453125 31.5625 65.1875 
Q 28.859375 67.921875 25 67.921875 
z
M 25 74.21875 
Q 28.125 74.21875 31 73.015625 
Q 33.890625 71.828125 35.984375 69.578125 
Q 38.234375 67.390625 39.359375 64.59375 
Q 40.484375 61.8125 40.484375 58.59375 
Q 40.484375 52.15625 35.96875 47.6875 
Q 31.453125 43.21875 24.90625 43.21875 
Q 18.3125 43.21875 13.90625 47.609375 
Q 9.515625 52 9.515625 58.59375 
Q 9.515625 65.140625 14 69.671875 
Q 18.5 74.21875 25 74.21875 
z
" id="DejaVuSans-176"/>
      <path d="M 64.40625 67.28125 
L 64.40625 56.890625 
Q 59.421875 61.53125 53.78125 63.8125 
Q 48.140625 66.109375 41.796875 66.109375 
Q 29.296875 66.109375 22.65625 58.46875 
Q 16.015625 50.828125 16.015625 36.375 
Q 16.015625 21.96875 22.65625 14.328125 
Q 29.296875 6.6875 41.796875 6.6875 
Q 48.140625 6.6875 53.78125 8.984375 
Q 59.421875 11.28125 64.40625 15.921875 
L 64.40625 5.609375 
Q 59.234375 2.09375 53.4375 0.328125 
Q 47.65625 -1.421875 41.21875 -1.421875 
Q 24.65625 -1.421875 15.125 8.703125 
Q 5.609375 18.84375 5.609375 36.375 
Q 5.609375 53.953125 15.125 64.078125 
Q 24.65625 74.21875 41.21875 74.21875 
Q 47.75 74.21875 53.53125 72.484375 
Q 59.328125 70.75 64.40625 67.28125 
z
" id="DejaVuSans-67"/>
     </defs>
     <g transform="translate(29.778125 218.627219)rotate(-90)scale(0.1 -0.1)">
      <use xlink:href="#DejaVuSans-84"/>
      <use x="60.818359" xlink:href="#DejaVuSans-101"/>
      <use x="122.341797" xlink:href="#DejaVuSans-109"/>
      <use x="219.753906" xlink:href="#DejaVuSans-112"/>
      <use x="283.230469" xlink:href="#DejaVuSans-101"/>
      <use x="344.753906" xlink:href="#DejaVuSans-114"/>
      <use x="385.867188" xlink:href="#DejaVuSans-97"/>
      <use x="447.146484" xlink:href="#DejaVuSans-116"/>
      <use x="486.355469" xlink:href="#DejaVuSans-117"/>
      <use x="549.734375" xlink:href="#DejaVuSans-114"/>
      <use x="590.816406" xlink:href="#DejaVuSans-101"/>
      <use x="652.339844" xlink:href="#DejaVuSans-32"/>
      <use x="684.126953" xlink:href="#DejaVuSans-40"/>
      <use x="723.140625" xlink:href="#DejaVuSans-176"/>
      <use x="773.140625" xlink:href="#DejaVuSans-67"/>
      <use x="842.964844" xlink:href="#DejaVuSans-41"/>
     </g>
    </g>
   </g>
   <g id="line2d_18">
    <path clip-path="url(#p310a289cb5)" d="M 80.525842 47.019123 
L 81.279222 47.019123 
L 82.645438 50.434301 
L 82.986992 52.141891 
L 83.328546 52.995685 
L 83.6701 54.703274 
L 84.353209 56.410863 
L 85.036317 59.826041 
L 85.377871 60.679836 
L 85.719425 62.387425 
L 86.060979 63.241219 
L 86.402533 64.948808 
L 86.744087 65.802603 
L 87.085641 67.510192 
L 87.427195 68.363987 
L 87.77692 70.071576 
L 88.118474 70.92537 
L 88.460028 72.632959 
L 89.143136 74.340548 
L 89.826244 77.755726 
L 90.509352 79.463315 
L 91.19246 82.878494 
L 91.875568 84.586083 
L 92.217122 86.293672 
L 92.90023 88.001261 
L 93.241784 89.70885 
L 93.924893 91.416439 
L 94.608001 94.831617 
L 95.637565 97.393001 
L 95.979119 99.10059 
L 96.320673 99.954384 
L 96.662227 101.661973 
L 97.345336 103.369562 
L 97.68689 105.077151 
L 98.711552 107.638535 
L 99.053106 109.346124 
L 99.736214 111.053713 
L 100.077768 112.761302 
L 100.760876 114.468891 
L 101.10243 116.17648 
L 102.131995 118.737864 
L 102.473549 120.445453 
L 103.156657 122.153042 
L 103.498211 123.860631 
L 104.522873 126.422015 
L 104.867695 128.129604 
L 106.233911 131.544782 
L 106.575465 133.252371 
L 107.941682 136.667549 
L 108.288138 138.375138 
L 109.995908 142.644111 
L 110.337463 144.3517 
L 112.728341 150.328261 
L 113.069895 152.03585 
L 114.777665 156.304823 
L 115.119219 158.012412 
L 115.465676 158.012412 
L 115.80723 159.720001 
L 119.905878 169.965535 
L 120.247432 171.673125 
L 120.588986 172.526919 
L 120.93054 172.526919 
L 121.272094 174.234508 
L 127.083415 188.749015 
L 127.424969 188.749015 
L 127.766523 190.456604 
L 131.52852 199.848344 
L 131.870074 199.848344 
L 136.660002 211.801467 
L 137.001556 211.801467 
L 140.075542 219.485618 
L 140.417096 219.485618 
L 142.124867 223.754591 
L 142.466421 223.754591 
L 142.807975 225.46218 
L 143.154431 226.315974 
L 143.495985 226.315974 
L 144.520647 228.877358 
L 144.862201 228.877358 
L 145.203755 230.584947 
L 145.54531 230.584947 
L 146.569972 233.146331 
L 146.911526 233.146331 
L 147.25308 234.85392 
L 147.594634 234.85392 
L 149.302404 239.122892 
L 149.643958 239.122892 
L 150.330334 240.830481 
L 150.671888 240.830481 
L 152.038105 244.245659 
L 152.379659 244.245659 
L 152.721213 245.953249 
L 153.062767 245.953249 
L 154.428983 249.368427 
L 154.770537 249.368427 
L 155.795199 251.92981 
L 156.136753 251.92981 
L 157.166318 254.491194 
L 157.507872 254.491194 
L 158.874088 257.906372 
L 159.215642 257.906372 
L 160.581858 261.32155 
L 161.264966 261.32155 
L 162.976005 265.590523 
L 163.317559 265.590523 
L 164.005569 267.298112 
L 164.347123 267.298112 
L 165.371786 269.859495 
L 165.71334 269.859495 
L 166.738002 272.420879 
L 167.079556 272.420879 
L 167.762664 274.128468 
L 168.104218 274.128468 
L 169.12888 276.689852 
L 169.470434 276.689852 
L 169.811988 277.543646 
L 170.153542 277.543646 
L 171.183107 280.10503 
L 171.524661 280.10503 
L 172.207769 281.812619 
L 172.549323 281.812619 
L 173.232431 283.520208 
L 173.573985 283.520208 
L 173.915539 284.374002 
L 174.257093 284.374002 
L 175.281755 286.935386 
L 175.623309 286.935386 
L 176.306417 288.642975 
L 176.647971 288.642975 
L 176.989525 289.496769 
L 177.331079 289.496769 
L 178.01909 291.204359 
L 178.360644 291.204359 
L 179.043752 292.911948 
L 179.385306 292.911948 
L 180.068414 294.619537 
L 180.409968 294.619537 
L 180.751522 295.473331 
L 181.093076 295.473331 
L 182.117738 298.034715 
L 182.800846 298.034715 
L 183.142401 298.888509 
L 183.483955 298.888509 
L 183.825509 298.034715 
L 185.538181 298.034715 
L 185.879735 297.18092 
L 187.587506 297.18092 
L 187.92906 296.327126 
L 190.323206 296.327126 
L 190.66476 295.473331 
L 193.060541 295.473331 
L 193.402095 294.619537 
L 196.476082 294.619537 
L 196.817636 293.765742 
L 199.554971 293.765742 
L 199.896525 292.911948 
L 200.238079 293.765742 
L 201.262741 293.765742 
L 201.604295 292.911948 
L 201.945849 293.765742 
L 202.287403 292.911948 
L 207.75717 292.911948 
L 208.098724 292.058153 
L 208.440278 292.911948 
L 210.148048 292.911948 
L 210.489602 292.058153 
L 210.831156 292.911948 
L 212.202275 292.911948 
L 212.543829 292.058153 
L 212.885383 292.058153 
L 213.226937 292.911948 
L 213.568491 292.058153 
L 215.959369 292.058153 
L 216.300923 292.911948 
L 216.642477 292.058153 
L 217.325585 292.058153 
L 217.667139 292.911948 
L 218.008694 292.058153 
L 218.358419 292.911948 
L 218.699973 292.058153 
L 219.041527 292.058153 
L 219.383081 292.911948 
L 219.724635 292.058153 
L 220.066189 292.911948 
L 220.407743 292.058153 
L 220.749297 292.911948 
L 222.457067 292.911948 
L 222.798621 292.058153 
L 223.140175 292.911948 
L 223.481729 292.911948 
L 223.823283 292.058153 
L 224.164837 292.058153 
L 224.506391 292.911948 
L 224.852848 292.058153 
L 225.87751 292.058153 
L 226.219064 292.911948 
L 227.243726 292.911948 
L 227.58528 292.058153 
L 228.268388 292.058153 
L 228.609942 292.911948 
L 228.951496 292.058153 
L 229.976158 292.058153 
L 230.317712 292.911948 
L 230.659266 292.911948 
L 231.000821 292.058153 
L 231.688831 292.058153 
L 232.030385 292.911948 
L 233.738155 292.911948 
L 234.079709 292.058153 
L 235.104372 292.058153 
L 235.445926 292.911948 
L 235.78748 292.058153 
L 236.129034 292.911948 
L 236.470588 292.911948 
L 236.812142 292.058153 
L 237.153696 292.911948 
L 238.183261 292.911948 
L 238.524815 292.058153 
L 238.866369 292.058153 
L 239.207923 292.911948 
L 240.232585 292.911948 
L 240.574139 292.058153 
L 240.915693 292.911948 
L 241.257247 292.058153 
L 241.598801 292.058153 
L 241.940355 292.911948 
L 248.438053 292.911948 
L 248.779607 293.765742 
L 249.121161 292.911948 
L 249.462715 292.911948 
L 249.804269 293.765742 
L 250.492279 293.765742 
L 250.833833 292.911948 
L 252.883158 292.911948 
L 253.224712 293.765742 
L 253.566266 293.765742 
L 253.90782 292.911948 
L 254.249374 293.765742 
L 270.657041 293.765742 
L 270.998595 294.619537 
L 271.340149 293.765742 
L 272.364811 293.765742 
L 272.706365 294.619537 
L 273.051188 293.765742 
L 273.392742 294.619537 
L 274.07585 294.619537 
L 274.422307 293.765742 
L 274.763861 294.619537 
L 291.509813 294.619537 
L 291.851367 293.765742 
L 295.613364 293.765742 
L 295.954919 294.619537 
L 302.79417 294.619537 
L 303.135724 295.473331 
L 303.477278 294.619537 
L 303.818832 295.473331 
L 311.342826 295.473331 
L 311.68438 294.619537 
L 312.025934 295.473331 
L 315.783029 295.473331 
L 316.124583 294.619537 
L 316.466137 295.473331 
L 331.512491 295.473331 
L 331.854045 294.619537 
L 332.195599 295.473331 
L 348.946454 295.473331 
L 349.288008 296.327126 
L 349.629562 295.473331 
L 349.974385 296.327126 
L 350.315939 295.473331 
L 350.657493 296.327126 
L 350.999047 296.327126 
L 351.340601 295.473331 
L 351.682155 296.327126 
L 352.023709 295.473331 
L 352.365263 296.327126 
L 352.706817 295.473331 
L 353.05164 296.327126 
L 353.393194 296.327126 
L 353.734748 295.473331 
L 354.076302 296.327126 
L 354.417856 295.473331 
L 358.17495 295.473331 
L 358.516504 296.327126 
L 358.862961 295.473331 
L 361.936947 295.473331 
L 362.278501 296.327126 
L 362.620055 295.473331 
L 366.040498 295.473331 
L 366.382052 296.327126 
L 366.723606 295.473331 
L 391.361255 295.473331 
L 391.702809 296.327126 
L 392.044363 295.473331 
L 405.03649 295.473331 
L 405.378044 296.327126 
L 405.719598 295.473331 
L 406.402706 295.473331 
L 406.74426 296.327126 
L 407.085814 295.473331 
L 409.140041 295.473331 
L 409.481595 296.327126 
L 409.823149 295.473331 
L 410.847811 295.473331 
L 411.189365 296.327126 
L 411.530919 295.473331 
L 411.872473 296.327126 
L 412.214027 295.473331 
L 413.243592 295.473331 
L 413.585146 296.327126 
L 413.9267 295.473331 
L 414.268254 296.327126 
L 414.609808 295.473331 
L 414.951362 295.473331 
L 414.951362 295.473331 
" style="fill:none;stroke:#1f77b4;stroke-linecap:square;stroke-width:1.5;"/>
   </g>
   <g id="line2d_19">
    <path clip-path="url(#p310a289cb5)" d="M 80.525842 52.141891 
L 80.937668 52.141891 
L 81.279222 51.288096 
L 88.801582 51.288096 
L 89.143136 52.141891 
L 89.48469 51.288096 
L 89.826244 52.141891 
L 92.217122 52.141891 
L 92.558676 52.995685 
L 93.583338 52.995685 
L 93.924893 53.84948 
L 94.954457 53.84948 
L 95.296011 54.703274 
L 96.320673 54.703274 
L 96.662227 55.557069 
L 98.028444 55.557069 
L 98.369998 56.410863 
L 98.711552 56.410863 
L 99.053106 57.264658 
L 99.736214 57.264658 
L 100.077768 58.118452 
L 100.760876 58.118452 
L 101.10243 58.972247 
L 101.443984 58.972247 
L 101.790441 59.826041 
L 102.131995 59.826041 
L 102.473549 60.679836 
L 102.815103 60.679836 
L 103.156657 61.53363 
L 103.839765 61.53363 
L 104.181319 62.387425 
L 104.522873 62.387425 
L 104.867695 63.241219 
L 105.209249 63.241219 
L 105.550803 64.095014 
L 105.892357 64.095014 
L 106.233911 64.948808 
L 106.575465 64.948808 
L 107.258574 66.656398 
L 107.941682 66.656398 
L 108.288138 67.510192 
L 108.629692 67.510192 
L 109.3128 69.217781 
L 109.654354 69.217781 
L 109.995908 70.071576 
L 110.337463 70.071576 
L 110.679017 70.92537 
L 111.020571 70.92537 
L 111.703679 72.632959 
L 112.045233 72.632959 
L 112.386787 73.486754 
L 112.728341 73.486754 
L 113.069895 74.340548 
L 113.411449 74.340548 
L 114.436111 76.901932 
L 114.777665 76.901932 
L 115.465676 78.609521 
L 115.80723 78.609521 
L 116.148784 79.463315 
L 116.490338 79.463315 
L 117.515 82.024699 
L 117.856554 82.024699 
L 118.539662 83.732288 
L 118.881216 83.732288 
L 119.564324 85.439877 
L 119.905878 85.439877 
L 120.93054 88.001261 
L 121.272094 88.001261 
L 121.613648 88.855055 
L 121.955202 88.855055 
L 122.643213 90.562644 
L 122.984767 90.562644 
L 123.326321 92.270233 
L 123.667875 92.270233 
L 124.692537 94.831617 
L 125.034091 94.831617 
L 125.717199 96.539206 
L 126.058753 96.539206 
L 127.083415 99.10059 
L 127.424969 99.10059 
L 128.449631 101.661973 
L 128.791186 101.661973 
L 130.503858 105.930946 
L 131.186966 105.930946 
L 131.52852 107.638535 
L 131.870074 107.638535 
L 133.239559 111.053713 
L 133.581113 111.053713 
L 134.947329 114.468891 
L 135.288883 114.468891 
L 136.318448 117.030275 
L 136.660002 117.030275 
L 138.026218 120.445453 
L 138.367772 120.445453 
L 139.733988 123.860631 
L 140.075542 123.860631 
L 141.783313 128.129604 
L 142.124867 128.129604 
L 143.837539 132.398576 
L 144.179093 132.398576 
L 145.203755 134.95996 
L 145.54531 134.95996 
L 147.25308 139.228932 
L 147.594634 139.228932 
L 148.96085 142.644111 
L 149.302404 142.644111 
L 150.330334 145.205494 
L 150.671888 145.205494 
L 152.721213 150.328261 
L 153.062767 150.328261 
L 154.770537 154.597234 
L 155.112091 154.597234 
L 155.453645 155.451029 
L 155.795199 155.451029 
L 156.136753 157.158618 
L 156.478307 157.158618 
L 157.849426 160.573796 
L 158.19098 160.573796 
L 159.89875 164.842768 
L 160.240304 164.842768 
L 160.923412 166.550357 
L 161.264966 166.550357 
L 163.317559 171.673125 
L 163.659113 171.673125 
L 164.688678 174.234508 
L 165.030232 174.234508 
L 166.396448 177.649686 
L 166.738002 177.649686 
L 168.104218 181.064864 
L 168.445772 181.064864 
L 169.470434 183.626248 
L 169.811988 183.626248 
L 171.183107 187.041426 
L 171.524661 187.041426 
L 172.890877 190.456604 
L 173.232431 190.456604 
L 174.257093 193.017988 
L 174.598647 193.017988 
L 175.623309 195.579371 
L 175.964863 195.579371 
L 177.672633 199.848344 
L 178.01909 199.848344 
L 178.360644 200.702139 
L 178.702198 200.702139 
L 180.409968 204.971111 
L 180.751522 204.971111 
L 181.093076 205.824906 
L 181.43463 205.824906 
L 182.800846 209.240084 
L 183.142401 210.947673 
L 183.483955 211.801467 
L 183.825509 211.801467 
L 184.508617 213.509056 
L 184.850171 213.509056 
L 185.196627 214.362851 
L 185.879735 214.362851 
L 186.562844 216.07044 
L 186.904398 216.07044 
L 187.587506 217.778029 
L 187.92906 217.778029 
L 188.612168 219.485618 
L 188.953722 219.485618 
L 189.295276 220.339413 
L 189.63683 220.339413 
L 189.981652 221.193207 
L 190.323206 221.193207 
L 190.66476 222.047002 
L 191.006314 222.047002 
L 191.347868 222.900796 
L 191.689422 222.900796 
L 192.718987 225.46218 
L 193.402095 225.46218 
L 193.743649 226.315974 
L 194.085203 226.315974 
L 194.426757 227.169769 
L 194.768311 227.169769 
L 195.451419 228.877358 
L 195.792973 228.877358 
L 196.134528 229.731152 
L 196.476082 229.731152 
L 196.817636 230.584947 
L 197.15919 230.584947 
L 197.500744 231.438742 
L 197.842298 231.438742 
L 198.183852 232.292536 
L 198.525406 232.292536 
L 199.213416 234.000125 
L 199.554971 234.000125 
L 199.896525 234.85392 
L 200.238079 234.85392 
L 200.579633 235.707714 
L 200.921187 235.707714 
L 201.262741 236.561509 
L 201.604295 236.561509 
L 201.945849 237.415303 
L 202.287403 237.415303 
L 202.628957 238.269098 
L 202.970511 238.269098 
L 203.312065 239.122892 
L 203.995173 239.122892 
L 204.336727 240.830481 
L 205.019835 240.830481 
L 205.707846 242.53807 
L 206.390954 242.53807 
L 207.074062 244.245659 
L 207.75717 244.245659 
L 208.440278 245.953249 
L 209.123386 245.953249 
L 209.806494 247.660838 
L 210.831156 247.660838 
L 211.514264 249.368427 
L 211.860721 249.368427 
L 212.202275 250.222221 
L 212.543829 250.222221 
L 212.885383 251.076016 
L 213.568491 251.076016 
L 213.910045 251.92981 
L 214.251599 251.92981 
L 214.593153 252.783605 
L 214.934707 252.783605 
L 215.276261 253.637399 
L 216.300923 253.637399 
L 216.642477 254.491194 
L 216.984031 254.491194 
L 217.325585 255.344988 
L 217.667139 255.344988 
L 218.008694 256.198783 
L 218.358419 256.198783 
L 218.699973 257.052577 
L 219.383081 257.052577 
L 219.724635 257.906372 
L 220.749297 257.906372 
L 221.090851 258.760166 
L 222.115513 258.760166 
L 222.457067 259.613961 
L 222.798621 259.613961 
L 223.140175 260.467756 
L 223.823283 260.467756 
L 224.164837 261.32155 
L 224.852848 261.32155 
L 225.194402 262.175345 
L 225.87751 262.175345 
L 226.219064 263.029139 
L 226.902172 263.029139 
L 227.243726 263.882934 
L 228.268388 263.882934 
L 228.609942 264.736728 
L 229.976158 264.736728 
L 230.317712 265.590523 
L 231.347277 265.590523 
L 231.688831 266.444317 
L 232.371939 266.444317 
L 232.713493 267.298112 
L 233.738155 267.298112 
L 234.079709 268.151906 
L 235.104372 268.151906 
L 235.445926 269.005701 
L 236.470588 269.005701 
L 236.812142 269.859495 
L 238.524815 269.859495 
L 238.866369 270.71329 
L 240.232585 270.71329 
L 240.574139 271.567084 
L 241.257247 271.567084 
L 241.598801 272.420879 
L 242.965017 272.420879 
L 243.306571 273.274673 
L 245.019244 273.274673 
L 245.360798 274.128468 
L 246.730282 274.128468 
L 247.071836 274.982262 
L 248.779607 274.982262 
L 249.121161 275.836057 
L 251.175388 275.836057 
L 251.516942 276.689852 
L 252.883158 276.689852 
L 253.224712 277.543646 
L 254.932482 277.543646 
L 255.274036 278.397441 
L 257.668183 278.397441 
L 258.009737 279.251235 
L 260.400615 279.251235 
L 260.742169 280.10503 
L 262.796396 280.10503 
L 263.13795 280.958824 
L 265.528828 280.958824 
L 265.870382 281.812619 
L 268.607717 281.812619 
L 268.949271 282.666413 
L 269.290825 281.812619 
L 269.632379 282.666413 
L 269.973933 281.812619 
L 270.315487 282.666413 
L 272.023257 282.666413 
L 272.364811 283.520208 
L 275.105415 283.520208 
L 275.446969 284.374002 
L 277.496293 284.374002 
L 277.837847 285.227797 
L 278.179401 284.374002 
L 278.520955 285.227797 
L 281.25829 285.227797 
L 281.599844 286.081591 
L 285.698492 286.081591 
L 286.040046 286.935386 
L 290.143597 286.935386 
L 290.485151 287.78918 
L 294.930256 287.78918 
L 295.27181 288.642975 
L 295.613364 288.642975 
L 295.954919 287.78918 
L 296.296473 288.642975 
L 299.037076 288.642975 
L 299.37863 289.496769 
L 299.720184 288.642975 
L 300.061738 289.496769 
L 303.818832 289.496769 
L 304.160386 290.350564 
L 304.848397 290.350564 
L 305.189951 289.496769 
L 305.531505 290.350564 
L 308.605491 290.350564 
L 308.947046 291.204359 
L 309.2886 290.350564 
L 309.630154 290.350564 
L 309.971708 291.204359 
L 310.313262 290.350564 
L 310.659718 291.204359 
L 315.441475 291.204359 
L 315.783029 292.058153 
L 316.466137 292.058153 
L 316.812594 291.204359 
L 317.154148 292.058153 
L 323.990131 292.058153 
L 324.334953 292.911948 
L 324.676507 292.058153 
L 325.359615 292.058153 
L 325.70117 292.911948 
L 330.487829 292.911948 
L 330.829383 293.765742 
L 331.170937 292.911948 
L 331.512491 292.911948 
L 331.854045 293.765742 
L 332.878707 293.765742 
L 333.220261 292.911948 
L 333.561815 293.765742 
L 339.031582 293.765742 
L 339.373136 294.619537 
L 339.71469 293.765742 
L 340.056244 294.619537 
L 340.397798 294.619537 
L 340.744255 293.765742 
L 341.085809 293.765742 
L 341.427363 294.619537 
L 346.209119 294.619537 
L 346.550673 295.473331 
L 346.89713 294.619537 
L 349.974385 294.619537 
L 350.315939 295.473331 
L 359.887623 295.473331 
L 360.229177 296.327126 
L 360.570731 295.473331 
L 361.595393 295.473331 
L 361.936947 296.327126 
L 362.278501 295.473331 
L 362.620055 296.327126 
L 365.015836 296.327126 
L 365.35739 295.473331 
L 365.698944 296.327126 
L 373.901144 296.327126 
L 374.242698 297.18092 
L 374.584252 296.327126 
L 374.925806 297.18092 
L 375.270628 296.327126 
L 376.636844 296.327126 
L 377.00618 297.18092 
L 377.347734 296.327126 
L 377.689288 296.327126 
L 378.030842 297.18092 
L 378.372396 296.327126 
L 378.71395 297.18092 
L 379.055504 296.327126 
L 379.397058 297.18092 
L 396.147914 297.18092 
L 396.489468 298.034715 
L 396.831022 297.18092 
L 398.538792 297.18092 
L 398.880346 298.034715 
L 399.2219 297.18092 
L 399.563454 297.18092 
L 399.905008 298.034715 
L 400.246562 298.034715 
L 400.588116 297.18092 
L 400.932939 297.18092 
L 401.279396 298.034715 
L 401.62095 297.18092 
L 401.962504 298.034715 
L 404.353382 298.034715 
L 404.694936 297.18092 
L 405.378044 297.18092 
L 405.719598 298.034715 
L 410.164703 298.034715 
L 410.506257 297.18092 
L 410.847811 298.034715 
L 414.951362 298.034715 
L 414.951362 298.034715 
" style="fill:none;stroke:#ff7f0e;stroke-linecap:square;stroke-width:1.5;"/>
   </g>
   <g id="line2d_20">
    <path clip-path="url(#p310a289cb5)" d="M 374.242698 230.584947 
L 374.242698 298.888509 
" style="fill:none;stroke:#000000;stroke-dasharray:2.22,0.96;stroke-dashoffset:0;stroke-width:0.6;"/>
   </g>
   <g id="patch_3">
    <path d="M 57.6 307.584 
L 57.6 41.472 
" style="fill:none;stroke:#000000;stroke-linecap:square;stroke-linejoin:miter;stroke-width:0.8;"/>
   </g>
   <g id="patch_4">
    <path d="M 414.72 307.584 
L 414.72 41.472 
" style="fill:none;stroke:#000000;stroke-linecap:square;stroke-linejoin:miter;stroke-width:0.8;"/>
   </g>
   <g id="patch_5">
    <path d="M 57.6 307.584 
L 414.72 307.584 
" style="fill:none;stroke:#000000;stroke-linecap:square;stroke-linejoin:miter;stroke-width:0.8;"/>
   </g>
   <g id="patch_6">
    <path d="M 57.6 41.472 
L 414.72 41.472 
" style="fill:none;stroke:#000000;stroke-linecap:square;stroke-linejoin:miter;stroke-width:0.8;"/>
   </g>
   <g id="patch_7">
    <path d="M 371.122111 230.584947 
Q 259.721401 230.584947 148.320691 230.584947 
" style="fill:none;stroke:#000000;stroke-linecap:round;"/>
    <path d="M 367.122111 228.584947 
L 371.122111 230.584947 
L 367.122111 232.584947 
" style="fill:none;stroke:#000000;stroke-linecap:round;"/>
    <path d="M 152.320691 232.584947 
L 148.320691 230.584947 
L 152.320691 228.584947 
" style="fill:none;stroke:#000000;stroke-linecap:round;"/>
   </g>
   <g id="text_20">
    <!-- 140 seconds -->
    <defs>
     <path d="M 48.78125 52.59375 
L 48.78125 44.1875 
Q 44.96875 46.296875 41.140625 47.34375 
Q 37.3125 48.390625 33.40625 48.390625 
Q 24.65625 48.390625 19.8125 42.84375 
Q 14.984375 37.3125 14.984375 27.296875 
Q 14.984375 17.28125 19.8125 11.734375 
Q 24.65625 6.203125 33.40625 6.203125 
Q 37.3125 6.203125 41.140625 7.25 
Q 44.96875 8.296875 48.78125 10.40625 
L 48.78125 2.09375 
Q 45.015625 0.34375 40.984375 -0.53125 
Q 36.96875 -1.421875 32.421875 -1.421875 
Q 20.0625 -1.421875 12.78125 6.34375 
Q 5.515625 14.109375 5.515625 27.296875 
Q 5.515625 40.671875 12.859375 48.328125 
Q 20.21875 56 33.015625 56 
Q 37.15625 56 41.109375 55.140625 
Q 45.0625 54.296875 48.78125 52.59375 
z
" id="DejaVuSans-99"/>
     <path d="M 30.609375 48.390625 
Q 23.390625 48.390625 19.1875 42.75 
Q 14.984375 37.109375 14.984375 27.296875 
Q 14.984375 17.484375 19.15625 11.84375 
Q 23.34375 6.203125 30.609375 6.203125 
Q 37.796875 6.203125 41.984375 11.859375 
Q 46.1875 17.53125 46.1875 27.296875 
Q 46.1875 37.015625 41.984375 42.703125 
Q 37.796875 48.390625 30.609375 48.390625 
z
M 30.609375 56 
Q 42.328125 56 49.015625 48.375 
Q 55.71875 40.765625 55.71875 27.296875 
Q 55.71875 13.875 49.015625 6.21875 
Q 42.328125 -1.421875 30.609375 -1.421875 
Q 18.84375 -1.421875 12.171875 6.21875 
Q 5.515625 13.875 5.515625 27.296875 
Q 5.515625 40.765625 12.171875 48.375 
Q 18.84375 56 30.609375 56 
z
" id="DejaVuSans-111"/>
     <path d="M 54.890625 33.015625 
L 54.890625 0 
L 45.90625 0 
L 45.90625 32.71875 
Q 45.90625 40.484375 42.875 44.328125 
Q 39.84375 48.1875 33.796875 48.1875 
Q 26.515625 48.1875 22.3125 43.546875 
Q 18.109375 38.921875 18.109375 30.90625 
L 18.109375 0 
L 9.078125 0 
L 9.078125 54.6875 
L 18.109375 54.6875 
L 18.109375 46.1875 
Q 21.34375 51.125 25.703125 53.5625 
Q 30.078125 56 35.796875 56 
Q 45.21875 56 50.046875 50.171875 
Q 54.890625 44.34375 54.890625 33.015625 
z
" id="DejaVuSans-110"/>
     <path d="M 45.40625 46.390625 
L 45.40625 75.984375 
L 54.390625 75.984375 
L 54.390625 0 
L 45.40625 0 
L 45.40625 8.203125 
Q 42.578125 3.328125 38.25 0.953125 
Q 33.9375 -1.421875 27.875 -1.421875 
Q 17.96875 -1.421875 11.734375 6.484375 
Q 5.515625 14.40625 5.515625 27.296875 
Q 5.515625 40.1875 11.734375 48.09375 
Q 17.96875 56 27.875 56 
Q 33.9375 56 38.25 53.625 
Q 42.578125 51.265625 45.40625 46.390625 
z
M 14.796875 27.296875 
Q 14.796875 17.390625 18.875 11.75 
Q 22.953125 6.109375 30.078125 6.109375 
Q 37.203125 6.109375 41.296875 11.75 
Q 45.40625 17.390625 45.40625 27.296875 
Q 45.40625 37.203125 41.296875 42.84375 
Q 37.203125 48.484375 30.078125 48.484375 
Q 22.953125 48.484375 18.875 42.84375 
Q 14.796875 37.203125 14.796875 27.296875 
z
" id="DejaVuSans-100"/>
    </defs>
    <g transform="translate(228.152914 222.047002)scale(0.1 -0.1)">
     <use xlink:href="#DejaVuSans-49"/>
     <use x="63.623047" xlink:href="#DejaVuSans-52"/>
     <use x="127.246094" xlink:href="#DejaVuSans-48"/>
     <use x="190.869141" xlink:href="#DejaVuSans-32"/>
     <use x="222.65625" xlink:href="#DejaVuSans-115"/>
     <use x="274.755859" xlink:href="#DejaVuSans-101"/>
     <use x="336.279297" xlink:href="#DejaVuSans-99"/>
     <use x="391.259766" xlink:href="#DejaVuSans-111"/>
     <use x="452.441406" xlink:href="#DejaVuSans-110"/>
     <use x="515.820312" xlink:href="#DejaVuSans-100"/>
     <use x="579.296875" xlink:href="#DejaVuSans-115"/>
    </g>
   </g>
   <g id="legend_1">
    <g id="patch_8">
     <path d="M 315.97 78.82825 
L 407.72 78.82825 
Q 409.72 78.82825 409.72 76.82825 
L 409.72 48.472 
Q 409.72 46.472 407.72 46.472 
L 315.97 46.472 
Q 313.97 46.472 313.97 48.472 
L 313.97 76.82825 
Q 313.97 78.82825 315.97 78.82825 
z
" style="fill:#ffffff;opacity:0.8;stroke:#cccccc;stroke-linejoin:miter;"/>
    </g>
    <g id="line2d_21">
     <path d="M 317.97 54.570437 
L 337.97 54.570437 
" style="fill:none;stroke:#1f77b4;stroke-linecap:square;stroke-width:1.5;"/>
    </g>
    <g id="line2d_22"/>
    <g id="text_21">
     <!-- Inner PRT -->
     <defs>
      <path d="M 9.8125 72.90625 
L 19.671875 72.90625 
L 19.671875 0 
L 9.8125 0 
z
" id="DejaVuSans-73"/>
      <path d="M 19.671875 64.796875 
L 19.671875 37.40625 
L 32.078125 37.40625 
Q 38.96875 37.40625 42.71875 40.96875 
Q 46.484375 44.53125 46.484375 51.125 
Q 46.484375 57.671875 42.71875 61.234375 
Q 38.96875 64.796875 32.078125 64.796875 
z
M 9.8125 72.90625 
L 32.078125 72.90625 
Q 44.34375 72.90625 50.609375 67.359375 
Q 56.890625 61.8125 56.890625 51.125 
Q 56.890625 40.328125 50.609375 34.8125 
Q 44.34375 29.296875 32.078125 29.296875 
L 19.671875 29.296875 
L 19.671875 0 
L 9.8125 0 
z
" id="DejaVuSans-80"/>
      <path d="M 44.390625 34.1875 
Q 47.5625 33.109375 50.5625 29.59375 
Q 53.5625 26.078125 56.59375 19.921875 
L 66.609375 0 
L 56 0 
L 46.6875 18.703125 
Q 43.0625 26.03125 39.671875 28.421875 
Q 36.28125 30.8125 30.421875 30.8125 
L 19.671875 30.8125 
L 19.671875 0 
L 9.8125 0 
L 9.8125 72.90625 
L 32.078125 72.90625 
Q 44.578125 72.90625 50.734375 67.671875 
Q 56.890625 62.453125 56.890625 51.90625 
Q 56.890625 45.015625 53.6875 40.46875 
Q 50.484375 35.9375 44.390625 34.1875 
z
M 19.671875 64.796875 
L 19.671875 38.921875 
L 32.078125 38.921875 
Q 39.203125 38.921875 42.84375 42.21875 
Q 46.484375 45.515625 46.484375 51.90625 
Q 46.484375 58.296875 42.84375 61.546875 
Q 39.203125 64.796875 32.078125 64.796875 
z
" id="DejaVuSans-82"/>
     </defs>
     <g transform="translate(345.97 58.070437)scale(0.1 -0.1)">
      <use xlink:href="#DejaVuSans-73"/>
      <use x="29.492188" xlink:href="#DejaVuSans-110"/>
      <use x="92.871094" xlink:href="#DejaVuSans-110"/>
      <use x="156.25" xlink:href="#DejaVuSans-101"/>
      <use x="217.773438" xlink:href="#DejaVuSans-114"/>
      <use x="258.886719" xlink:href="#DejaVuSans-32"/>
      <use x="290.673828" xlink:href="#DejaVuSans-80"/>
      <use x="350.976562" xlink:href="#DejaVuSans-82"/>
      <use x="420.349609" xlink:href="#DejaVuSans-84"/>
     </g>
    </g>
    <g id="line2d_23">
     <path d="M 317.97 69.248562 
L 337.97 69.248562 
" style="fill:none;stroke:#ff7f0e;stroke-linecap:square;stroke-width:1.5;"/>
    </g>
    <g id="line2d_24"/>
    <g id="text_22">
     <!-- Sample PRT -->
     <defs>
      <path d="M 53.515625 70.515625 
L 53.515625 60.890625 
Q 47.90625 63.578125 42.921875 64.890625 
Q 37.9375 66.21875 33.296875 66.21875 
Q 25.25 66.21875 20.875 63.09375 
Q 16.5 59.96875 16.5 54.203125 
Q 16.5 49.359375 19.40625 46.890625 
Q 22.3125 44.4375 30.421875 42.921875 
L 36.375 41.703125 
Q 47.40625 39.59375 52.65625 34.296875 
Q 57.90625 29 57.90625 20.125 
Q 57.90625 9.515625 50.796875 4.046875 
Q 43.703125 -1.421875 29.984375 -1.421875 
Q 24.8125 -1.421875 18.96875 -0.25 
Q 13.140625 0.921875 6.890625 3.21875 
L 6.890625 13.375 
Q 12.890625 10.015625 18.65625 8.296875 
Q 24.421875 6.59375 29.984375 6.59375 
Q 38.421875 6.59375 43.015625 9.90625 
Q 47.609375 13.234375 47.609375 19.390625 
Q 47.609375 24.75 44.3125 27.78125 
Q 41.015625 30.8125 33.5 32.328125 
L 27.484375 33.5 
Q 16.453125 35.6875 11.515625 40.375 
Q 6.59375 45.0625 6.59375 53.421875 
Q 6.59375 63.09375 13.40625 68.65625 
Q 20.21875 74.21875 32.171875 74.21875 
Q 37.3125 74.21875 42.625 73.28125 
Q 47.953125 72.359375 53.515625 70.515625 
z
" id="DejaVuSans-83"/>
      <path d="M 9.421875 75.984375 
L 18.40625 75.984375 
L 18.40625 0 
L 9.421875 0 
z
" id="DejaVuSans-108"/>
     </defs>
     <g transform="translate(345.97 72.748562)scale(0.1 -0.1)">
      <use xlink:href="#DejaVuSans-83"/>
      <use x="63.476562" xlink:href="#DejaVuSans-97"/>
      <use x="124.755859" xlink:href="#DejaVuSans-109"/>
      <use x="222.167969" xlink:href="#DejaVuSans-112"/>
      <use x="285.644531" xlink:href="#DejaVuSans-108"/>
      <use x="313.427734" xlink:href="#DejaVuSans-101"/>
      <use x="374.951172" xlink:href="#DejaVuSans-32"/>
      <use x="406.738281" xlink:href="#DejaVuSans-80"/>
      <use x="467.041016" xlink:href="#DejaVuSans-82"/>
      <use x="536.414062" xlink:href="#DejaVuSans-84"/>
     </g>
    </g>
   </g>
  </g>
 </g>
 <defs>
  <clipPath id="p310a289cb5">
   <rect height="266.112" width="357.12" x="57.6" y="41.472"/>
  </clipPath>
 </defs>
</svg>
